<?xml version="1.0" encoding="UTF-8" standalone="no"?>
<!DOCTYPE svg PUBLIC "-//W3C//DTD SVG 1.1//EN" "http://www.w3.org/Graphics/SVG/1.1/DTD/svg11.dtd">
<svg width="100%" height="100%" viewBox="0 0 2196 1449" version="1.1" xmlns="http://www.w3.org/2000/svg" xmlns:xlink="http://www.w3.org/1999/xlink" xml:space="preserve" xmlns:serif="http://www.serif.com/" style="fill-rule:evenodd;clip-rule:evenodd;stroke-linejoin:round;stroke-miterlimit:2;">
    <path d="M1799.56,1313.61c-0,13.07 78.33,23.66 174.94,23.66c96.62,-0 174.94,-10.59 174.94,-23.66c0,-13.07 -78.32,-23.66 -174.94,-23.66c-96.61,-0 -174.94,10.59 -174.94,23.66Z" style="fill-rule:nonzero;"/>
    <path d="M1829.55,975.08c-34.67,-61.39 -79.02,-257.191 -75.09,-257.192c55.63,61.792 122.93,156.242 178.02,256.662l-102.93,0.53Z" style="fill:#0f9f9a;fill-rule:nonzero;"/>
    <path d="M1829.55,975.08c-34.67,-61.39 -79.02,-257.191 -75.09,-257.192c55.63,61.792 122.93,156.242 178.02,256.662l-102.93,0.53Z" style="fill:none;stroke:#000;stroke-width:7.39px;"/>
    <path d="M1951.22,974.55c54.5,-133.28 103.02,-256.67 170.13,-362.55c0,126.62 -20.22,249.95 -47.13,363.08l-123,-0.53Z" style="fill:#0f9f9a;fill-rule:nonzero;"/>
    <path d="M1951.22,974.55c54.5,-133.28 103.02,-256.67 170.13,-362.55c0,126.62 -20.22,249.95 -47.13,363.08l-123,-0.53Z" style="fill:none;stroke:#000;stroke-width:7.39px;"/>
    <path d="M1940.81,478.385c-38.1,147.768 -49.04,315.945 -60.86,496.165l105.05,-0c-5.24,-169.24 -19.01,-332.447 -44.19,-496.165Z" style="fill:#0f9f9a;fill-rule:nonzero;"/>
    <path d="M1940.81,478.385c-38.1,147.768 -49.04,315.945 -60.86,496.165l105.05,-0c-5.24,-169.24 -19.01,-332.447 -44.19,-496.165Z" style="fill:none;stroke:#000;stroke-width:7.39px;"/>
    <path d="M1826.78,584.009c-0,-0 -0,301.951 14.42,391.071l102.63,-0c-20.28,-124.35 -68.13,-255.281 -117.05,-391.071Z" style="fill:#0f9f9a;fill-rule:nonzero;"/>
    <path d="M1826.78,584.009c-0,-0 -0,301.951 14.42,391.071l102.63,-0c-20.28,-124.35 -68.13,-255.281 -117.05,-391.071Z" style="fill:none;stroke:#000;stroke-width:7.39px;"/>
    <path d="M2026.33,545.985c22.05,128.201 35.95,280.545 24.43,427.915l-118.28,0.65c7.39,-154.74 42.11,-308.682 93.85,-428.565Z" style="fill:#0f9f9a;fill-rule:nonzero;"/>
    <path d="M2026.33,545.985c22.05,128.201 35.95,280.545 24.43,427.915l-118.28,0.65c7.39,-154.74 42.11,-308.682 93.85,-428.565Z" style="fill:none;stroke:#000;stroke-width:7.39px;"/>
    <path d="M2191.76,715.776c-12.67,92.554 -39.63,180.954 -72.14,258.774l-82.88,-0c41.91,-103.11 77.89,-185.21 155.02,-258.774Z" style="fill:#0f9f9a;fill-rule:nonzero;"/>
    <path d="M2191.76,715.776c-12.67,92.554 -39.63,180.954 -72.14,258.774l-82.88,-0c41.91,-103.11 77.89,-185.21 155.02,-258.774Z" style="fill:none;stroke:#000;stroke-width:7.39px;"/>
    <path d="M1974.5,993.83l-191.71,30.1l71.3,289.68c81.57,5.83 161.94,6.25 240.82,-0l71.3,-289.68l-191.71,-30.1Z" style="fill:#fff;fill-rule:nonzero;"/>
    <path d="M1974.5,993.83l-191.71,30.1l71.3,289.68c81.57,5.83 161.94,6.25 240.82,-0l71.3,-289.68l-191.71,-30.1Z" style="fill:none;stroke:#000;stroke-width:7.39px;"/>
    <rect x="1762.2" y="963.73" width="424.61" height="60.2" style="fill:#fff;fill-rule:nonzero;"/>
    <rect x="1762.2" y="963.73" width="424.61" height="60.2" style="fill:none;stroke:#000;stroke-width:7.39px;"/>
    <path d="M773.676,860.3l-145.84,-0c-18.07,-0 -32.402,-11.84 -32.402,-33.65c-0,-4.99 1.244,-11.84 4.984,-18.7l143.968,-282.319c9.34,-18.074 24.92,-24.929 40.51,-24.929c16.82,-0 48.61,14.335 48.61,36.77c0,3.739 -1.25,7.48 -3.12,11.842l-110.31,221.246l53.6,-0l-0,-43.63c-0,-20.565 24.3,-29.289 48.61,-29.289c24.31,-0 48.61,8.724 48.61,29.289l-0,43.63l26.8,-0c19.94,-0 29.92,22.43 29.92,44.87c0,22.44 -14.96,44.87 -29.92,44.87l-26.8,-0l-0,66.06c-0,19.95 -24.3,29.92 -48.61,29.92c-24.31,-0 -48.61,-9.97 -48.61,-29.92l-0,-66.06Z" style="fill:#f65552;fill-rule:nonzero;"/>
    <path d="M773.676,860.3l-145.84,-0c-18.07,-0 -32.402,-11.84 -32.402,-33.65c-0,-4.99 1.244,-11.84 4.984,-18.7l143.968,-282.319c9.34,-18.074 24.92,-24.929 40.51,-24.929c16.82,-0 48.61,14.335 48.61,36.77c0,3.739 -1.25,7.48 -3.12,11.842l-110.31,221.246l53.6,-0l-0,-43.63c-0,-20.565 24.3,-29.289 48.61,-29.289c24.31,-0 48.61,8.724 48.61,29.289l-0,43.63l26.8,-0c19.94,-0 29.92,22.43 29.92,44.87c0,22.44 -14.96,44.87 -29.92,44.87l-26.8,-0l-0,66.06c-0,19.95 -24.3,29.92 -48.61,29.92c-24.31,-0 -48.61,-9.97 -48.61,-29.92l-0,-66.06Z" style="fill:none;stroke:#000;stroke-width:7.39px;"/>
    <path d="M1172.4,647.783c-0,-43.002 -21.18,-62.323 -56.09,-62.323c-34.9,-0 -55.46,19.321 -55.46,62.323l0,165.157c0,43 20.56,62.32 55.46,62.32c34.91,-0 56.09,-19.32 56.09,-62.32l-0,-165.157Zm-208.78,165.157l0,-165.157c0,-107.194 66.69,-147.081 152.69,-147.081c86.01,-0 153.32,39.887 153.32,147.081l0,165.157c0,107.19 -67.31,147.08 -153.32,147.08c-86,-0 -152.69,-39.89 -152.69,-147.08Z" style="fill:#f65552;fill-rule:nonzero;"/>
    <path d="M1172.4,647.783c-0,-43.002 -21.18,-62.323 -56.09,-62.323c-34.9,-0 -55.46,19.321 -55.46,62.323l0,165.157c0,43 20.56,62.32 55.46,62.32c34.91,-0 56.09,-19.32 56.09,-62.32l-0,-165.157Zm-208.78,165.157l0,-165.157c0,-107.194 66.69,-147.081 152.69,-147.081c86.01,-0 153.32,39.887 153.32,147.081l0,165.157c0,107.19 -67.31,147.08 -153.32,147.08c-86,-0 -152.69,-39.89 -152.69,-147.08Z" style="fill:none;stroke:#000;stroke-width:7.39px;"/>
    <path d="M1483.69,860.3l-145.83,-0c-18.08,-0 -32.41,-11.84 -32.41,-33.65c-0,-4.99 1.25,-11.84 4.99,-18.7l143.96,-282.319c9.35,-18.074 24.93,-24.929 40.51,-24.929c16.83,-0 48.61,14.335 48.61,36.77c-0,3.739 -1.25,7.48 -3.11,11.842l-110.32,221.246l53.6,-0l-0,-43.63c-0,-20.565 24.31,-29.289 48.61,-29.289c24.31,-0 48.61,8.724 48.61,29.289l-0,43.63l26.8,-0c19.95,-0 29.92,22.43 29.92,44.87c0,22.44 -14.96,44.87 -29.92,44.87l-26.8,-0l-0,66.06c-0,19.95 -24.3,29.92 -48.61,29.92c-24.3,-0 -48.61,-9.97 -48.61,-29.92l-0,-66.06Z" style="fill:#f65552;fill-rule:nonzero;"/>
    <path d="M1483.69,860.3l-145.83,-0c-18.08,-0 -32.41,-11.84 -32.41,-33.65c-0,-4.99 1.25,-11.84 4.99,-18.7l143.96,-282.319c9.35,-18.074 24.93,-24.929 40.51,-24.929c16.83,-0 48.61,14.335 48.61,36.77c-0,3.739 -1.25,7.48 -3.11,11.842l-110.32,221.246l53.6,-0l-0,-43.63c-0,-20.565 24.31,-29.289 48.61,-29.289c24.31,-0 48.61,8.724 48.61,29.289l-0,43.63l26.8,-0c19.95,-0 29.92,22.43 29.92,44.87c0,22.44 -14.96,44.87 -29.92,44.87l-26.8,-0l-0,66.06c-0,19.95 -24.3,29.92 -48.61,29.92c-24.3,-0 -48.61,-9.97 -48.61,-29.92l-0,-66.06Z" style="fill:none;stroke:#000;stroke-width:7.39px;"/>
    <path d="M2138.16,292.907l-4.6,15.703c-0.27,0.921 -0.99,1.641 -1.91,1.911l-15.7,4.595c-2.7,0.789 -2.7,4.614 0,5.404l15.7,4.595c0.92,0.27 1.64,0.99 1.91,1.912l4.6,15.702c0.79,2.699 4.61,2.699 5.4,-0l4.6,-15.702c0.27,-0.922 0.99,-1.642 1.91,-1.912l15.7,-4.595c2.7,-0.79 2.7,-4.615 -0,-5.404l-15.7,-4.595c-0.92,-0.27 -1.64,-0.99 -1.91,-1.911l-4.6,-15.703c-0.79,-2.699 -4.61,-2.699 -5.4,-0Z" style="fill:#fbb03c;fill-rule:nonzero;"/>
    <path d="M2034.88,214.019l-7.38,25.235c-0.43,1.48 -1.59,2.638 -3.07,3.071l-25.24,7.385c-4.34,1.269 -4.34,7.415 0,8.685l25.24,7.384c1.48,0.434 2.64,1.592 3.07,3.072l7.38,25.235c1.27,4.339 7.42,4.339 8.69,-0l7.38,-25.235c0.44,-1.48 1.59,-2.638 3.08,-3.072l25.23,-7.384c4.34,-1.27 4.34,-7.416 -0,-8.685l-25.23,-7.385c-1.49,-0.433 -2.64,-1.591 -3.08,-3.071l-7.38,-25.235c-1.27,-4.339 -7.42,-4.339 -8.69,-0Z" style="fill:#fbb03c;fill-rule:nonzero;"/>
    <path d="M95.978,209.808l4.596,15.702c0.269,0.921 0.989,1.642 1.911,1.912l15.702,4.595c2.699,0.79 2.699,4.614 -0,5.404l-15.702,4.595c-0.922,0.269 -1.642,0.99 -1.911,1.911l-4.596,15.702c-0.79,2.7 -4.614,2.7 -5.404,-0l-4.595,-15.702c-0.27,-0.921 -0.99,-1.642 -1.912,-1.911l-15.702,-4.595c-2.699,-0.79 -2.699,-4.614 -0,-5.404l15.702,-4.595c0.922,-0.27 1.642,-0.991 1.912,-1.912l4.595,-15.702c0.79,-2.7 4.614,-2.7 5.404,-0Z" style="fill:#fbb03c;fill-rule:nonzero;"/>
    <path d="M140.945,317.532l4.595,15.702c0.27,0.921 0.99,1.642 1.912,1.912l15.702,4.594c2.7,0.79 2.7,4.615 -0,5.405l-15.702,4.594c-0.922,0.27 -1.642,0.991 -1.912,1.912l-4.595,15.702c-0.79,2.7 -4.614,2.7 -5.404,-0l-4.595,-15.702c-0.271,-0.921 -0.99,-1.642 -1.911,-1.912l-15.703,-4.594c-2.699,-0.79 -2.699,-4.615 0,-5.405l15.703,-4.594c0.921,-0.27 1.64,-0.991 1.911,-1.912l4.595,-15.702c0.79,-2.7 4.614,-2.7 5.404,-0Z" style="fill:#fbb03c;fill-rule:nonzero;"/>
    <path d="M203.258,126.579l7.385,25.235c0.433,1.48 1.591,2.638 3.072,3.071l25.234,7.385c4.339,1.27 4.339,7.415 -0,8.685l-25.234,7.385c-1.481,0.433 -2.639,1.59 -3.072,3.071l-7.385,25.235c-1.27,4.339 -7.415,4.339 -8.685,-0l-7.385,-25.235c-0.433,-1.481 -1.59,-2.638 -3.071,-3.071l-25.235,-7.385c-4.338,-1.27 -4.338,-7.415 0,-8.685l25.235,-7.385c1.481,-0.433 2.638,-1.591 3.071,-3.071l7.385,-25.235c1.27,-4.339 7.415,-4.339 8.685,-0Z" style="fill:#fbb03c;fill-rule:nonzero;"/>
    <path d="M2132.45,433.76c-3.03,18.892 -20.79,31.754 -39.68,28.729c-18.9,-3.025 -31.76,-20.791 -28.73,-39.683c3.02,-18.891 20.79,-31.754 39.68,-28.729c18.89,3.025 31.75,20.792 28.73,39.683Z" style="fill:#fff;fill-rule:nonzero;"/>
    <path d="M2132.45,433.76c-3.03,18.892 -20.79,31.754 -39.68,28.729c-18.9,-3.025 -31.76,-20.791 -28.73,-39.683c3.02,-18.891 20.79,-31.754 39.68,-28.729c18.89,3.025 31.75,20.792 28.73,39.683Z" style="fill:none;stroke:#000;stroke-width:7.39px;"/>
    <path d="M2115.42,526.146c-1.5,9.373 -10.32,15.754 -19.69,14.254c-9.37,-1.501 -15.75,-10.316 -14.25,-19.689c1.5,-9.373 10.31,-15.755 19.68,-14.253c9.38,1.5 15.76,10.315 14.26,19.688Z" style="fill:#fff;fill-rule:nonzero;"/>
    <path d="M2115.42,526.146c-1.5,9.373 -10.32,15.754 -19.69,14.254c-9.37,-1.501 -15.75,-10.316 -14.25,-19.689c1.5,-9.373 10.31,-15.755 19.68,-14.253c9.38,1.5 15.76,10.315 14.26,19.688Z" style="fill:none;stroke:#000;stroke-width:7.39px;"/>
    <path d="M2161.92,481.103c-1.5,9.373 -10.31,15.754 -19.69,14.253c-9.37,-1.5 -15.75,-10.315 -14.25,-19.688c1.5,-9.373 10.31,-15.755 19.69,-14.254c9.37,1.501 15.75,10.316 14.25,19.689Z" style="fill:#fff;fill-rule:nonzero;"/>
    <path d="M2161.92,481.103c-1.5,9.373 -10.31,15.754 -19.69,14.253c-9.37,-1.5 -15.75,-10.315 -14.25,-19.688c1.5,-9.373 10.31,-15.755 19.69,-14.254c9.37,1.501 15.75,10.316 14.25,19.689Z" style="fill:none;stroke:#000;stroke-width:7.39px;"/>
    <path d="M1927.33,1195.11c-0,9.41 -7.65,17.07 -17.06,17.07l-1579.45,-0c-9.417,-0 -17.07,-7.66 -17.07,-17.07l0,-949.212l1613.58,-0l-0,949.212Zm-17.06,-1111.16l-1579.45,-0c-18.792,-0 -34.098,15.266 -34.098,34.057l-0,1077.1c-0,18.79 15.306,34.09 34.098,34.09l1579.45,-0c18.79,-0 34.09,-15.3 34.09,-34.09l0,-1077.1c0,-18.791 -15.3,-34.057 -34.09,-34.057Z" style="fill:#fff;fill-rule:nonzero;"/>
    <path d="M1927.33,1195.11c-0,9.41 -7.65,17.07 -17.06,17.07l-1579.45,-0c-9.417,-0 -17.07,-7.66 -17.07,-17.07l0,-949.212l1613.58,-0l-0,949.212Zm-17.06,-1111.16l-1579.45,-0c-18.792,-0 -34.098,15.266 -34.098,34.057l-0,1077.1c-0,18.79 15.306,34.09 34.098,34.09l1579.45,-0c18.79,-0 34.09,-15.3 34.09,-34.09l0,-1077.1c0,-18.791 -15.3,-34.057 -34.09,-34.057Z" style="fill:none;stroke:#000;stroke-width:7.39px;"/>
    <path d="M392.941,189.672l-24.43,-0c-7.881,-0 -14.328,-6.448 -14.328,-14.328l-0,-20.843c-0,-7.881 6.447,-14.329 14.328,-14.329l24.43,-0c7.881,-0 14.328,6.448 14.328,14.329l-0,20.843c-0,7.88 -6.447,14.328 -14.328,14.328Z" style="fill:#f65552;fill-rule:nonzero;"/>
    <path d="M392.941,189.672l-24.43,-0c-7.881,-0 -14.328,-6.448 -14.328,-14.328l-0,-20.843c-0,-7.881 6.447,-14.329 14.328,-14.329l24.43,-0c7.881,-0 14.328,6.448 14.328,14.329l-0,20.843c-0,7.88 -6.447,14.328 -14.328,14.328Z" style="fill:none;stroke:#000;stroke-width:7.39px;"/>
    <path d="M473.124,189.672l-24.43,-0c-7.881,-0 -14.328,-6.448 -14.328,-14.328l-0,-20.843c-0,-7.881 6.447,-14.329 14.328,-14.329l24.43,-0c7.881,-0 14.328,6.448 14.328,14.329l-0,20.843c-0,7.88 -6.447,14.328 -14.328,14.328Z" style="fill:#0f9f9a;fill-rule:nonzero;"/>
    <path d="M473.124,189.672l-24.43,-0c-7.881,-0 -14.328,-6.448 -14.328,-14.328l-0,-20.843c-0,-7.881 6.447,-14.329 14.328,-14.329l24.43,-0c7.881,-0 14.328,6.448 14.328,14.329l-0,20.843c-0,7.88 -6.447,14.328 -14.328,14.328Z" style="fill:none;stroke:#000;stroke-width:7.39px;"/>
    <path d="M553.307,189.672l-24.43,-0c-7.88,-0 -14.329,-6.448 -14.329,-14.328l-0,-20.843c-0,-7.881 6.449,-14.329 14.329,-14.329l24.43,-0c7.88,-0 14.328,6.448 14.328,14.329l0,20.843c0,7.88 -6.448,14.328 -14.328,14.328Z" style="fill:#fbb03c;fill-rule:nonzero;"/>
    <path d="M553.307,189.672l-24.43,-0c-7.88,-0 -14.329,-6.448 -14.329,-14.328l-0,-20.843c-0,-7.881 6.449,-14.329 14.329,-14.329l24.43,-0c7.88,-0 14.328,6.448 14.328,14.329l0,20.843c0,7.88 -6.448,14.328 -14.328,14.328Z" style="fill:none;stroke:#000;stroke-width:7.39px;"/>
    <path d="M1276.66,477.665c13.6,-19.399 25.72,-39.851 36.23,-61.306c-98.08,-16.609 -172.82,-102.036 -172.82,-204.81c-0,-112.983 91.47,-207.852 207.85,-207.852c111.08,-0 201.93,87.317 207.52,197.164c7.04,147.665 -109.74,284.181 -273.11,287.236c-5.43,0.101 -8.79,-5.985 -5.67,-10.432Z" style="fill:#fff;fill-rule:nonzero;"/>
    <path d="M1276.66,477.665c13.6,-19.399 25.72,-39.851 36.23,-61.306c-98.08,-16.609 -172.82,-102.036 -172.82,-204.81c-0,-112.983 91.47,-207.852 207.85,-207.852c111.08,-0 201.93,87.317 207.52,197.164c7.04,147.665 -109.74,284.181 -273.11,287.236c-5.43,0.101 -8.79,-5.985 -5.67,-10.432Z" style="fill:none;stroke:#000;stroke-width:7.39px;"/>
    <path d="M1347.75,310.348c-25.61,-0 -48.93,-9.805 -66.59,-25.754l158.24,-112.764c5.1,11.968 7.94,25.125 7.94,38.935c-0,54.911 -44.68,99.583 -99.59,99.583Zm0,-199.166c26.79,-0 51.1,10.686 69.02,27.955l-159.25,113.485c-5.94,-12.745 -9.35,-26.894 -9.35,-41.857c-0,-54.911 44.68,-99.583 99.58,-99.583Zm0,-39.76c-76.83,-0 -139.34,62.508 -139.34,139.343c-0,76.835 62.51,139.343 139.34,139.343c76.84,-0 139.35,-62.508 139.35,-139.343c0,-76.835 -62.51,-139.343 -139.35,-139.343Z" style="fill:#f65552;fill-rule:nonzero;"/>
    <path d="M1347.75,310.348c-25.61,-0 -48.93,-9.805 -66.59,-25.754l158.24,-112.764c5.1,11.968 7.94,25.125 7.94,38.935c-0,54.911 -44.68,99.583 -99.59,99.583Zm0,-199.166c26.79,-0 51.1,10.686 69.02,27.955l-159.25,113.485c-5.94,-12.745 -9.35,-26.894 -9.35,-41.857c-0,-54.911 44.68,-99.583 99.58,-99.583Zm0,-39.76c-76.83,-0 -139.34,62.508 -139.34,139.343c-0,76.835 62.51,139.343 139.34,139.343c76.84,-0 139.35,-62.508 139.35,-139.343c0,-76.835 -62.51,-139.343 -139.35,-139.343Z" style="fill:none;stroke:#000;stroke-width:7.39px;"/>
    <path d="M1602.06,1425.32c-0,13.04 -61.5,23.61 -137.36,23.61c-75.86,-0 -137.36,-10.57 -137.36,-23.61c-0,-13.03 61.5,-23.6 137.36,-23.6c75.86,-0 137.36,10.57 137.36,23.6Z" style="fill-rule:nonzero;"/>
    <path d="M1418.92,967.53c-0,-10.94 -3.52,-16.45 -6.93,-21.77c-2.59,-4.04 -5.04,-7.95 -5.8,-14.49l-5.48,-0c0.8,8.14 3.79,12.86 6.71,17.42c3.12,4.88 6.08,9.48 6.08,18.84c0,9.37 -2.96,13.98 -6.08,18.86c-3.41,5.32 -6.93,10.83 -6.93,21.78c0,10.95 3.52,16.46 6.93,21.78c3.12,4.88 6.08,9.49 6.08,18.86c0,9.36 -2.96,13.97 -6.08,18.85c-3.41,5.33 -6.93,10.83 -6.93,21.79c0,10.95 3.52,16.46 6.93,21.78c3.12,4.88 6.08,9.49 6.08,18.86l5.42,-0c-0,-10.96 -3.52,-16.46 -6.93,-21.78c-3.12,-4.89 -6.07,-9.5 -6.07,-18.86c-0,-9.37 2.95,-13.98 6.07,-18.86c3.41,-5.33 6.93,-10.83 6.93,-21.78c-0,-10.96 -3.52,-16.46 -6.93,-21.78c-3.12,-4.88 -6.07,-9.49 -6.07,-18.86c-0,-9.37 2.95,-13.98 6.07,-18.86c3.41,-5.32 6.93,-10.82 6.93,-21.78Z" style="fill-rule:nonzero;"/>
    <path d="M1476.63,967.53c0,-10.94 -3.53,-16.45 -6.93,-21.77c-2.59,-4.04 -5.04,-7.95 -5.81,-14.49l-5.47,-0c0.8,8.14 3.79,12.86 6.71,17.42c3.12,4.88 6.07,9.48 6.07,18.84c-0,9.37 -2.95,13.98 -6.07,18.86c-3.41,5.32 -6.93,10.83 -6.93,21.78c-0,10.95 3.52,16.46 6.93,21.78c3.12,4.88 6.07,9.49 6.07,18.86c-0,9.36 -2.95,13.97 -6.07,18.85c-3.41,5.33 -6.93,10.83 -6.93,21.79c-0,10.95 3.52,16.46 6.93,21.78c3.12,4.88 6.07,9.49 6.07,18.86l5.43,-0c0,-10.96 -3.53,-16.46 -6.93,-21.78c-3.13,-4.89 -6.08,-9.5 -6.08,-18.86c0,-9.37 2.95,-13.98 6.08,-18.86c3.4,-5.33 6.93,-10.83 6.93,-21.78c0,-10.96 -3.53,-16.46 -6.93,-21.78c-3.13,-4.88 -6.08,-9.49 -6.08,-18.86c0,-9.37 2.95,-13.98 6.08,-18.86c3.4,-5.32 6.93,-10.82 6.93,-21.78Z" style="fill-rule:nonzero;"/>
    <path d="M1534.33,967.53c-0,-10.94 -3.52,-16.45 -6.93,-21.77c-2.59,-4.04 -5.03,-7.95 -5.8,-14.49l-5.47,-0c0.8,8.14 3.79,12.86 6.71,17.42c3.12,4.88 6.07,9.48 6.07,18.84c-0,9.37 -2.95,13.98 -6.07,18.86c-3.41,5.32 -6.93,10.83 -6.93,21.78c-0,10.95 3.52,16.46 6.93,21.78c3.12,4.88 6.07,9.49 6.07,18.86c-0,9.36 -2.95,13.97 -6.07,18.85c-3.41,5.33 -6.93,10.83 -6.93,21.79c-0,10.95 3.52,16.46 6.93,21.78c3.12,4.88 6.07,9.49 6.07,18.86l5.42,-0c-0,-10.96 -3.52,-16.46 -6.92,-21.78c-3.13,-4.89 -6.08,-9.5 -6.08,-18.86c-0,-9.37 2.95,-13.98 6.08,-18.86c3.4,-5.33 6.92,-10.83 6.92,-21.78c-0,-10.96 -3.52,-16.46 -6.92,-21.78c-3.13,-4.88 -6.08,-9.49 -6.08,-18.86c-0,-9.37 2.95,-13.98 6.08,-18.86c3.4,-5.32 6.92,-10.82 6.92,-21.78Z" style="fill-rule:nonzero;"/>
    <path d="M1604.75,1234.41c4.9,-0 9.83,0.8 14.47,2.74c16.68,6.98 25.5,27.61 25.5,59.67c0,32.05 -8.82,52.69 -25.51,59.67c-16.31,6.83 -36.35,-0.41 -45.5,-7.35l-0,-104.64c6.55,-4.97 18.69,-10.09 31.04,-10.09Zm0.12,140.81c6.94,-0 13.94,-1.17 20.54,-3.93c16.13,-6.75 35.36,-25.14 35.36,-74.47c-0,-49.33 -19.23,-67.73 -35.36,-74.47c-24.01,-10.05 -53.38,0.96 -65.36,12.77l-2.39,2.36l-0,118.68l2.39,2.36c8.68,8.56 26.52,16.7 44.82,16.7Z" style="fill:#fff;fill-rule:nonzero;"/>
    <path d="M1604.75,1234.41c4.9,-0 9.83,0.8 14.47,2.74c16.68,6.98 25.5,27.61 25.5,59.67c0,32.05 -8.82,52.69 -25.51,59.67c-16.31,6.83 -36.35,-0.41 -45.5,-7.35l-0,-104.64c6.55,-4.97 18.69,-10.09 31.04,-10.09Zm0.12,140.81c6.94,-0 13.94,-1.17 20.54,-3.93c16.13,-6.75 35.36,-25.14 35.36,-74.47c-0,-49.33 -19.23,-67.73 -35.36,-74.47c-24.01,-10.05 -53.38,0.96 -65.36,12.77l-2.39,2.36l-0,118.68l2.39,2.36c8.68,8.56 26.52,16.7 44.82,16.7Z" style="fill:none;stroke:#000;stroke-width:5.3px;"/>
    <path d="M1576.38,1168.63c-0.01,10.6 -48.87,19.23 -109.12,19.23c-60.23,-0 -109.09,-8.64 -109.09,-19.24l-0,-0.01l-0,246.34c-0,10.6 48.86,19.24 109.09,19.24c60.26,-0 109.13,-8.64 109.13,-19.24c0,-0.26 -0.01,-246.32 -0.01,-246.32Z" style="fill:#fff;fill-rule:nonzero;"/>
    <path d="M1576.38,1168.63c-0.01,10.6 -48.87,19.23 -109.12,19.23c-60.23,-0 -109.09,-8.64 -109.09,-19.24l-0,-0.01l-0,246.34c-0,10.6 48.86,19.24 109.09,19.24c60.26,-0 109.13,-8.64 109.13,-19.24c0,-0.26 -0.01,-246.32 -0.01,-246.32Z" style="fill:none;stroke:#000;stroke-width:5.3px;"/>
    <path d="M1576.38,1168.62l0,-0.01l0,0.01Z" style="fill:#fff;fill-rule:nonzero;"/>
    <path d="M1576.38,1168.62l0,-0.01l0,0.01Z" style="fill:none;stroke:#000;stroke-width:5.3px;"/>
    <path d="M1576.4,1168.64c-0,4.14 -7.39,7.94 -19.98,11.08c-19.75,4.92 -52.32,8.14 -89.16,8.14c-36.81,-0 -69.38,-3.22 -89.13,-8.14c-12.59,-3.14 -19.98,-6.94 -19.98,-11.08c-0,-10.62 48.88,-19.26 109.11,-19.26c60.27,-0 109.14,8.64 109.14,19.26Z" style="fill:#fff;fill-rule:nonzero;"/>
    <path d="M1576.4,1168.64c-0,4.14 -7.39,7.94 -19.98,11.08c-19.75,4.92 -52.32,8.14 -89.16,8.14c-36.81,-0 -69.38,-3.22 -89.13,-8.14c-12.59,-3.14 -19.98,-6.94 -19.98,-11.08c-0,-10.62 48.88,-19.26 109.11,-19.26c60.27,-0 109.14,8.64 109.14,19.26Z" style="fill:none;stroke:#000;stroke-width:5.3px;"/>
    <path d="M1556.42,1179.72c-19.75,4.92 -52.32,8.14 -89.16,8.14c-36.81,-0 -69.38,-3.22 -89.13,-8.14c19.75,-4.94 52.32,-8.17 89.13,-8.17c36.84,-0 69.41,3.23 89.16,8.17Z" style="fill:#fff;fill-rule:nonzero;"/>
    <path d="M1556.42,1179.72c-19.75,4.92 -52.32,8.14 -89.16,8.14c-36.81,-0 -69.38,-3.22 -89.13,-8.14c19.75,-4.94 52.32,-8.17 89.13,-8.17c36.84,-0 69.41,3.23 89.16,8.17Z" style="fill:none;stroke:#000;stroke-width:5.3px;"/>
    <path d="M1467.28,1382.82c-31.44,-0 -57.01,-25.58 -57.01,-57.01c-0,-21.79 12.13,-41.36 31.65,-51.08c3.89,-1.92 8.61,-0.35 10.54,3.54c1.93,3.89 0.35,8.6 -3.54,10.54c-14.15,7.03 -22.94,21.21 -22.94,37c0,22.77 18.53,41.29 41.3,41.29c22.76,-0 41.29,-18.52 41.29,-41.29c-0,-15.79 -8.79,-29.97 -22.94,-37c-3.89,-1.94 -5.47,-6.65 -3.53,-10.54c1.93,-3.89 6.65,-5.46 10.53,-3.54c19.52,9.72 31.65,29.29 31.65,51.08c-0,31.43 -25.57,57.01 -57,57.01Z" style="fill:#fbb03c;fill-rule:nonzero;"/>
    <path d="M1467.28,1311.35c-4.34,-0 -7.86,-3.51 -7.86,-7.85l-0,-46.91c-0,-4.34 3.52,-7.86 7.86,-7.86c4.33,-0 7.85,3.52 7.85,7.86l0,46.91c0,4.34 -3.52,7.85 -7.85,7.85Z" style="fill:#fbb03c;fill-rule:nonzero;"/>
    <path d="M682.916,1418.26c-0,16.94 64.26,30.67 143.53,30.67c79.27,-0 143.53,-13.73 143.53,-30.67c0,-16.93 -64.26,-30.66 -143.53,-30.66c-79.27,-0 -143.53,13.73 -143.53,30.66Z" style="fill-rule:nonzero;"/>
    <path d="M675.986,1184.66l52.73,221.33c0,4.09 6.62,7.85 17.89,10.95c17.7,4.86 46.86,8.04 79.82,8.04c32.99,-0 62.16,-3.18 79.85,-8.04c11.27,-3.1 17.89,-6.86 17.89,-10.95l52.73,-221.33l-300.91,-0Z" style="fill:#fff;fill-rule:nonzero;"/>
    <path d="M675.986,1184.66l52.73,221.33c0,4.09 6.62,7.85 17.89,10.95c17.7,4.86 46.86,8.04 79.82,8.04c32.99,-0 62.16,-3.18 79.85,-8.04c11.27,-3.1 17.89,-6.86 17.89,-10.95l52.73,-221.33l-300.91,-0Z" style="fill:none;stroke:#000;stroke-width:5.3px;"/>
    <path d="M976.896,1184.66c-0,6.3 -10.19,12.09 -27.54,16.86c-27.24,7.48 -72.14,12.38 -122.93,12.38c-50.76,-0 -95.66,-4.9 -122.9,-12.38c-17.35,-4.77 -27.54,-10.56 -27.54,-16.86c0,-16.14 67.38,-29.28 150.44,-29.28c83.09,-0 150.47,13.14 150.47,29.28Z" style="fill:#fff;fill-rule:nonzero;"/>
    <path d="M976.896,1184.66c-0,6.3 -10.19,12.09 -27.54,16.86c-27.24,7.48 -72.14,12.38 -122.93,12.38c-50.76,-0 -95.66,-4.9 -122.9,-12.38c-17.35,-4.77 -27.54,-10.56 -27.54,-16.86c0,-16.14 67.38,-29.28 150.44,-29.28c83.09,-0 150.47,13.14 150.47,29.28Z" style="fill:none;stroke:#000;stroke-width:5.3px;"/>
    <rect x="822.146" y="919.63" width="14.82" height="27.29" style="fill-rule:nonzero;"/>
    <path d="M799.566,960.52l14.72,3.75l-0,-7.09l-16.65,-0c-1.26,-0 -2.28,1.02 -2.28,2.28l0,108.32c0,1.89 1.53,3.42 3.42,3.42l1.48,-0c1.2,-0 2.15,-0.99 2.11,-2.19l-3.93,-107.58c-0.02,-0.6 0.54,-1.06 1.13,-0.91Z" style="fill-rule:nonzero;"/>
    <path d="M848.416,941.41l-0,272.18c-7.17,0.2 -14.55,0.33 -22,0.33c-5.31,-0 -10.54,-0.04 -15.72,-0.17l-0,-272.34l37.72,-0Z" style="fill:#0f9f9a;fill-rule:nonzero;"/>
    <path d="M848.416,941.41l-0,272.18c-7.17,0.2 -14.55,0.33 -22,0.33c-5.31,-0 -10.54,-0.04 -15.72,-0.17l-0,-272.34l37.72,-0Z" style="fill:none;stroke:#000;stroke-width:5.3px;"/>
    <path d="M941.556,932.79l-1.7,13.09l-29.91,-3.89l1.7,-13.09c0.52,-3.96 4.14,-6.75 8.09,-6.23l15.54,2.02c4,0.52 6.79,4.14 6.28,8.1Z" style="fill:#f65552;fill-rule:nonzero;"/>
    <path d="M941.556,932.79l-1.7,13.09l-29.91,-3.89l1.7,-13.09c0.52,-3.96 4.14,-6.75 8.09,-6.23l15.54,2.02c4,0.52 6.79,4.14 6.28,8.1Z" style="fill:none;stroke:#000;stroke-width:5.3px;"/>
    <path d="M921.986,966.44l-25,192.36l-6.81,52.31c-4.98,0.49 -10.09,0.89 -15.35,1.21l7.13,-54.85l25.08,-192.98l14.95,1.95Z" style="fill:#fbb03c;fill-rule:nonzero;"/>
    <path d="M921.986,966.44l-25,192.36l-6.81,52.31c-4.98,0.49 -10.09,0.89 -15.35,1.21l7.13,-54.85l25.08,-192.98l14.95,1.95Z" style="fill:none;stroke:#000;stroke-width:5.3px;"/>
    <path d="M936.936,968.38l-25,192.25l-6.32,48.9c-4.94,0.61 -10.09,1.13 -15.44,1.58l6.81,-52.31l25,-192.36l14.95,1.94Z" style="fill:#fbb03c;fill-rule:nonzero;"/>
    <path d="M936.936,968.38l-25,192.25l-6.32,48.9c-4.94,0.61 -10.09,1.13 -15.44,1.58l6.81,-52.31l25,-192.36l14.95,1.94Z" style="fill:none;stroke:#000;stroke-width:5.3px;"/>
    <path d="M939.856,945.88l-2.93,22.5l-29.9,-3.89l2.92,-22.5l29.91,3.89Z" style="fill:#fff;fill-rule:nonzero;"/>
    <path d="M939.856,945.88l-2.93,22.5l-29.9,-3.89l2.92,-22.5l29.91,3.89Z" style="fill:none;stroke:#000;stroke-width:5.3px;"/>
    <path d="M716.066,950.75l3.74,12.65l-28.92,8.55l-3.74,-12.66c-1.13,-3.83 1.05,-7.84 4.88,-8.97l15.03,-4.44c3.86,-1.14 7.88,1.04 9.01,4.87Z" style="fill:#f65552;fill-rule:nonzero;"/>
    <path d="M716.066,950.75l3.74,12.65l-28.92,8.55l-3.74,-12.66c-1.13,-3.83 1.05,-7.84 4.88,-8.97l15.03,-4.44c3.86,-1.14 7.88,1.04 9.01,4.87Z" style="fill:none;stroke:#000;stroke-width:5.3px;"/>
    <path d="M777.626,1212.32c-5.51,-0.36 -10.9,-0.81 -16.08,-1.29l-15.12,-51.13l-49.1,-166.19l14.46,-4.26l49.88,168.79l15.96,54.08Z" style="fill:#fbb03c;fill-rule:nonzero;"/>
    <path d="M777.626,1212.32c-5.51,-0.36 -10.9,-0.81 -16.08,-1.29l-15.12,-51.13l-49.1,-166.19l14.46,-4.26l49.88,168.79l15.96,54.08Z" style="fill:none;stroke:#000;stroke-width:5.3px;"/>
    <path d="M793.636,1213.18c-5.48,-0.21 -10.82,-0.49 -16.01,-0.86l-15.96,-54.08l-49.88,-168.79l14.47,-4.29l50.81,171.86l16.57,56.16Z" style="fill:#fbb03c;fill-rule:nonzero;"/>
    <path d="M793.636,1213.18c-5.48,-0.21 -10.82,-0.49 -16.01,-0.86l-15.96,-54.08l-49.88,-168.79l14.47,-4.29l50.81,171.86l16.57,56.16Z" style="fill:none;stroke:#000;stroke-width:5.3px;"/>
    <path d="M719.806,963.4l6.43,21.76l-28.92,8.55l-6.43,-21.76l28.92,-8.55Z" style="fill:#fff;fill-rule:nonzero;"/>
    <path d="M719.806,963.4l6.43,21.76l-28.92,8.55l-6.43,-21.76l28.92,-8.55Z" style="fill:none;stroke:#000;stroke-width:5.3px;"/>
    <path d="M428.864,1291.46c0,25.3 -96.005,45.81 -214.432,45.81c-118.428,-0 -214.432,-20.51 -214.432,-45.81c0,-25.3 96.004,-45.81 214.432,-45.81c118.427,-0 214.432,20.51 214.432,45.81Z" style="fill-rule:nonzero;"/>
    <path d="M88.826,774.21l209.737,-358.849l-20.683,-12.09l-209.737,358.849l20.683,12.09Z" style="fill-rule:nonzero;"/>
    <path d="M462.586,620.572c21.993,21.992 57.646,21.993 79.638,-0c21.993,-21.992 21.993,-57.646 -0,-79.638l-79.638,79.638Z" style="fill:#fbb03c;fill-rule:nonzero;"/>
    <path d="M462.586,620.572c21.993,21.992 57.646,21.993 79.638,-0c21.993,-21.992 21.993,-57.646 -0,-79.638l-79.638,79.638Z" style="fill:none;stroke:#000;stroke-width:8.1px;"/>
    <path d="M370.631,547.169l98.19,-98.19l-112.552,-112.553c-24.812,-24.811 -65.04,-24.811 -89.851,-0l-8.339,8.34c-24.811,24.812 -24.811,65.039 -0,89.85l112.552,112.553Z" style="fill:#fff;fill-rule:nonzero;"/>
    <path d="M370.631,547.169l98.19,-98.19l-112.552,-112.553c-24.812,-24.811 -65.04,-24.811 -89.851,-0l-8.339,8.34c-24.811,24.812 -24.811,65.039 -0,89.85l112.552,112.553Z" style="fill:none;stroke:#000;stroke-width:8.1px;"/>
    <path d="M386.991,688.081c2.124,2.287 5.697,2.389 7.882,0.204l215.064,-215.065c2.205,-2.204 2.083,-5.757 -0.204,-7.881c-61.791,-57.543 -158.562,-56.216 -218.76,3.982c-60.198,60.198 -61.526,156.969 -3.982,218.76Z" style="fill:#fff;fill-rule:nonzero;"/>
    <path d="M386.991,688.081c2.124,2.287 5.697,2.389 7.882,0.204l215.064,-215.065c2.205,-2.204 2.083,-5.757 -0.204,-7.881c-61.791,-57.543 -158.562,-56.216 -218.76,3.982c-60.198,60.198 -61.526,156.969 -3.982,218.76Z" style="fill:none;stroke:#000;stroke-width:8.1px;"/>
    <path d="M27.653,1281.72l-0,0.03c-0,7.09 12.663,13.62 34.192,19c33.817,8.38 89.574,13.93 152.62,13.93c63.014,-0 118.77,-5.55 152.587,-13.93c21.529,-5.38 34.194,-11.91 34.194,-19l-0,-0.03c-0,-87.59 -60.309,-161.11 -141.668,-181.27c-14.445,-3.6 -29.573,-5.51 -45.146,-5.51c-15.573,-0 -30.701,1.91 -45.146,5.51c-81.359,20.16 -141.633,93.68 -141.633,181.27Z" style="fill:#fff;fill-rule:nonzero;"/>
    <path d="M27.653,1281.72l-0,0.03c-0,7.09 12.663,13.62 34.192,19c33.817,8.38 89.574,13.93 152.62,13.93c63.014,-0 118.77,-5.55 152.587,-13.93c21.529,-5.38 34.194,-11.91 34.194,-19l-0,-0.03c-0,-87.59 -60.309,-161.11 -141.668,-181.27c-14.445,-3.6 -29.573,-5.51 -45.146,-5.51c-15.573,-0 -30.701,1.91 -45.146,5.51c-81.359,20.16 -141.633,93.68 -141.633,181.27Z" style="fill:none;stroke:#000;stroke-width:8.1px;"/>
    <path d="M169.286,1100.45c0.924,1.33 3.766,2.57 8.008,3.63c8.215,2.05 21.804,3.38 37.138,3.38c15.334,-0 28.923,-1.33 37.137,-3.38c4.243,-1.06 7.085,-2.3 8.009,-3.63c-14.445,-3.6 -29.573,-5.51 -45.146,-5.51c-15.573,-0 -30.701,1.91 -45.146,5.51Z" style="fill-rule:nonzero;"/>
    <path d="M196.634,1098.09c4.653,3.03 20.596,2.25 25.097,-0.57c0.175,-0.12 0.225,-0.33 0.149,-0.53l-132.378,-334.49l-22.277,8.81l129.238,326.57c0.035,0.09 0.09,0.16 0.171,0.21Z" style="fill-rule:nonzero;"/>
    <path d="M108.291,768.161c-0,-16.461 -13.345,-29.811 -29.806,-29.811c-16.462,-0 -29.806,13.35 -29.806,29.811c-0,16.459 13.344,29.809 29.806,29.809c16.461,-0 29.806,-13.35 29.806,-29.809Z" style="fill:#fff;fill-rule:nonzero;"/>
    <path d="M108.291,768.161c-0,-16.461 -13.345,-29.811 -29.806,-29.811c-16.462,-0 -29.806,13.35 -29.806,29.811c-0,16.459 13.344,29.809 29.806,29.809c16.461,-0 29.806,-13.35 29.806,-29.809Z" style="fill:none;stroke:#000;stroke-width:8.1px;"/>
</svg>
