<?xml version="1.0" encoding="UTF-8" standalone="no"?>
<!DOCTYPE svg PUBLIC "-//W3C//DTD SVG 1.1//EN" "http://www.w3.org/Graphics/SVG/1.1/DTD/svg11.dtd">
<svg width="100%" height="100%" viewBox="0 0 130 157" version="1.1" xmlns="http://www.w3.org/2000/svg" xmlns:xlink="http://www.w3.org/1999/xlink" xml:space="preserve" xmlns:serif="http://www.serif.com/" style="fill-rule:evenodd;clip-rule:evenodd;stroke-linejoin:round;stroke-miterlimit:2;">
    <path d="M6.794,120.15l6.898,0l0,29.998l16.619,0l0,6.585l-23.517,0l0,-36.583Zm95.429,0l24.458,0l0,6.585l-8.78,0l0,23.413l8.78,0l0,6.585l-24.458,0l0,-6.585l8.78,0l0,-23.413l-8.78,0l0,-6.585Zm-24.824,36.583l-6.899,0l0,-36.583l6.899,0l0,14.999l1.515,0l9.669,-14.999l7.787,0l0,0.314l-11.289,17.507l0,0.941l11.916,17.507l0,0.314l-8.101,0l-9.982,-14.999l-1.515,0l0,14.999Zm-22.629,-7.839l-12.073,0l-3.344,7.839l-7.369,0l16.096,-36.583l10.8,0c1.086,0 1.973,0.866 1.999,1.952c0.184,7.577 0.841,34.631 0.841,34.631l-6.846,0l-0.104,-7.839Zm-9.303,-6.585l9.198,0l-0.261,-18.71l-0.941,0l-7.996,18.71Zm-22.681,-39.87l-12.072,0l-3.345,7.84l-7.369,0l16.096,-36.583l10.8,0c1.086,0 1.973,0.866 2,1.951c0.184,7.578 0.841,34.632 0.841,34.632l-6.847,0l-0.104,-7.84Zm14.11,-28.743l13.275,0c4.529,0 7.891,1.054 10.086,3.162c2.195,2.107 3.293,5.374 3.293,9.799l0,10.661c0,4.425 -1.098,7.691 -3.293,9.799c-2.195,2.108 -5.557,3.162 -10.086,3.162l-13.275,0l0,-6.638l3.45,0l0,-23.36l-3.45,0l0,-6.585Zm62.714,-0l12.124,-0l2.091,27.489l0,5.331l1.254,-0l0,-5.331l2.09,-27.489l12.125,-0l0,36.583l-6.271,-0l0,-24.459l0.627,-8.361l-1.254,-0l-2.718,32.82l-10.348,-0l-2.822,-32.82l-1.254,-0l0.627,8.361l0,24.459l-6.271,-0l0,-36.583Zm-12.857,28.743l-12.072,-0l-3.345,7.84l-7.368,-0l16.096,-36.583l10.8,-0c1.085,-0 1.973,0.866 1.999,1.951c0.184,7.578 0.841,34.632 0.841,34.632l-6.846,-0l-0.105,-7.84Zm-36.582,1.255c2.404,-0 4.085,-0.567 5.043,-1.699c0.958,-1.132 1.437,-2.9 1.437,-5.304l0,-10.034c0,-2.091 -0.479,-3.676 -1.437,-4.756c-0.958,-1.08 -2.639,-1.62 -5.043,-1.62l-2.927,-0l0,23.413l2.927,-0Zm-36.688,-7.84l9.198,-0l-0.261,-18.709l-0.941,-0l-7.996,18.709Zm63.968,-0l9.198,-0l-0.261,-18.709l-0.941,-0l-7.996,18.709Zm-39.612,-33.161l0,-0.872c0,-15.875 12.916,-28.791 28.792,-28.791c15.875,-0 28.791,12.916 28.791,28.791l0,0.872l-7.487,-0l0,-0.872c0,-11.747 -9.557,-21.304 -21.304,-21.304c-11.747,-0 -21.304,9.557 -21.304,21.304l0,0.872l-7.488,-0Zm-16.515,-0l0,-0.872c0,-24.982 20.325,-45.306 45.307,-45.306c24.981,-0 45.306,20.324 45.306,45.306l0,0.872l-7.488,-0l0,-0.872c0,-20.853 -16.965,-37.819 -37.818,-37.819c-20.854,-0 -37.819,16.966 -37.819,37.819l0,0.872l-7.488,-0Zm99.64,-0l0,-0.872c0,-29.959 -24.374,-54.333 -54.333,-54.333c-29.96,-0 -54.334,24.374 -54.334,54.333l0,0.872l-7.488,-0l0,-0.872c0,-16.513 6.431,-32.037 18.107,-43.714c11.677,-11.676 27.202,-18.107 43.715,-18.107c16.513,-0 32.037,6.431 43.714,18.107c11.676,11.677 18.107,27.201 18.107,43.714l0,0.872l-7.488,-0Z" style="fill-rule:nonzero;"/>
</svg>
