<?xml version="1.0" encoding="UTF-8" standalone="no"?>
<!DOCTYPE svg PUBLIC "-//W3C//DTD SVG 1.1//EN" "http://www.w3.org/Graphics/SVG/1.1/DTD/svg11.dtd">
<svg width="100%" height="100%" viewBox="0 0 280 70" version="1.1" xmlns="http://www.w3.org/2000/svg" xmlns:xlink="http://www.w3.org/1999/xlink" xml:space="preserve" xmlns:serif="http://www.serif.com/" style="fill-rule:evenodd;clip-rule:evenodd;stroke-linejoin:round;stroke-miterlimit:2;">
    <rect x="0" y="0.008" width="69.886" height="69.886" style="fill:#ffce3b;fill-rule:nonzero;"/>
    <rect x="69.886" y="0.008" width="69.884" height="69.886" style="fill:#f3474d;fill-rule:nonzero;"/>
    <rect x="139.77" y="0.008" width="69.888" height="69.886" style="fill:#fff3e6;fill-rule:nonzero;"/>
    <rect x="209.658" y="0.008" width="69.886" height="69.886" style="fill:#ffce3b;fill-rule:nonzero;"/>
    <path d="M139.77,69.894c19.3,0 34.946,-15.644 34.946,-34.944c-0,-19.298 -15.646,-34.942 -34.946,-34.942l-0,69.886Z" style="fill:#242638;fill-rule:nonzero;"/>
    <path d="M34.942,69.894c19.298,0 34.944,-15.644 34.944,-34.944c0,-19.298 -15.646,-34.942 -34.944,-34.942l0,69.886Z" style="fill:#0071e5;fill-rule:nonzero;"/>
    <path d="M125.096,34.95c0,-8.092 6.584,-14.676 14.674,-14.676l-0,-2.794c-9.648,0 -17.47,7.822 -17.47,17.47c-0,9.65 7.822,17.472 17.47,17.472l-0,-2.796c-8.09,0 -14.674,-6.584 -14.674,-14.676Zm-5.826,0c-0,-11.304 9.198,-20.5 20.5,-20.5l-0,-2.794c-12.864,0 -23.294,10.43 -23.294,23.294c0,12.866 10.43,23.296 23.294,23.296l-0,-2.796c-11.302,0 -20.5,-9.196 -20.5,-20.5Zm-5.822,0c0,-14.514 11.808,-26.324 26.322,-26.324l-0,-2.794c-16.082,0 -29.118,13.036 -29.118,29.118c0,16.082 13.036,29.12 29.118,29.12l-0,-2.796c-14.514,0 -26.322,-11.808 -26.322,-26.324Zm-5.824,0c0,-17.726 14.422,-32.148 32.146,-32.148l-0,-2.794c-19.296,0 -34.942,15.644 -34.942,34.942c-0,19.3 15.646,34.944 34.942,34.944l-0,-2.794c-17.724,0 -32.146,-14.422 -32.146,-32.15Z" style="fill:#fff3e6;fill-rule:nonzero;"/>
    <path d="M278.316,44.13c5.07,-18.618 -5.914,-37.824 -24.534,-42.894c-18.62,-5.07 -37.828,5.914 -42.896,24.534c-5.07,18.62 5.914,37.826 24.534,42.896c18.62,5.07 37.826,-5.914 42.896,-24.536Z" style="fill:#f3474d;fill-rule:nonzero;"/>
    <path d="M34.942,34.95l-34.942,0c0,19.3 15.644,34.944 34.942,34.944l0,-34.944Z" style="fill:#242638;fill-rule:nonzero;"/>
    <rect x="174.716" y="0.008" width="34.942" height="69.84" style="fill:#0071e5;fill-rule:nonzero;"/>
</svg>
