<?xml version="1.0" encoding="UTF-8" standalone="no"?>
<!DOCTYPE svg PUBLIC "-//W3C//DTD SVG 1.1//EN" "http://www.w3.org/Graphics/SVG/1.1/DTD/svg11.dtd">
<svg width="100%" height="100%" viewBox="0 0 8400 3600" version="1.1" xmlns="http://www.w3.org/2000/svg" xmlns:xlink="http://www.w3.org/1999/xlink" xml:space="preserve" xmlns:serif="http://www.serif.com/" style="fill-rule:evenodd;clip-rule:evenodd;stroke-linejoin:round;stroke-miterlimit:2;">
    <g id="Group-33">
        <rect id="Rectangle" x="0" y="2400" width="1200" height="1200" style="fill:#fff;"/>
        <path id="Path" d="M600,3600c331.371,0 600,-268.629 600,-600c0,-331.371 -268.629,-600 -600,-600" style="fill:#fdd9d9;"/>
        <path id="Path1" serif:id="Path" d="M600,3600c-331.371,0 -600,-268.629 -600,-600c0,-331.371 268.629,-600 600,-600" style="fill:#10223b;"/>
        <circle id="Oval" cx="600" cy="3000" r="300" style="fill:#f86f42;"/>
    </g>
    <g id="Group-32">
        <path id="Rectangle1" serif:id="Rectangle" d="M548.25,1783.5l651.75,-583.5l0,1200l-1200,0l548.25,-616.5Z" style="fill:#10223b;"/>
        <path id="Path2" serif:id="Path" d="M0,2400c662.742,0 1200,-537.258 1200,-1200l-1200,0" style="fill:#3266d3;"/>
        <path id="Path3" serif:id="Path" d="M600,1200c0,331.371 -268.629,600 -600,600l0,-600" style="fill:#fdd9d9;"/>
    </g>
    <g id="Group-31">
        <path id="Rectangle2" serif:id="Rectangle" d="M0,0l1200,0l0,1200l-447.75,-527.25l-752.25,-672.75Z" style="fill:#fdd9d9;"/>
        <path id="Path4" serif:id="Path" d="M0,0c662.742,0 1200,537.258 1200,1200l-1200,0" style="fill:#f86f42;"/>
        <path id="Path5" serif:id="Path" d="M600,1200c0,-331.371 -268.629,-600 -600,-600l0,600" style="fill:#fff;"/>
    </g>
    <g id="Group-28">
        <path id="Rectangle3" serif:id="Rectangle" d="M1851.75,3012l-651.75,-612l0,1200l1200,0l-548.25,-588Z" style="fill:#3266d3;"/>
        <path id="Path6" serif:id="Path" d="M2400,3600c-662.742,0 -1200,-537.258 -1200,-1200l1200,0" style="fill:#f86f42;"/>
        <path id="Path7" serif:id="Path" d="M1800,2400c0,331.371 268.629,600 600,600l0,-600" style="fill:#10223b;"/>
    </g>
    <g id="Group-27">
        <rect id="Rectangle4" serif:id="Rectangle" x="1200" y="1200" width="1200" height="1200" style="fill:#fff;"/>
        <path id="Path8" serif:id="Path" d="M1800,2400c331.371,0 600,-268.629 600,-600c0,-331.371 -268.629,-600 -600,-600" style="fill:#3266d3;"/>
        <path id="Path9" serif:id="Path" d="M1800,2400c-331.371,0 -600,-268.629 -600,-600c0,-331.371 268.629,-600 600,-600" style="fill:#fdd9d9;"/>
        <path id="Path10" serif:id="Path" d="M2400,1800c0,-331.371 -268.629,-600 -600,-600l0,600" style="fill:#f86f42;"/>
    </g>
    <g id="Group-26">
        <rect id="Rectangle5" serif:id="Rectangle" x="1200" y="0" width="1200" height="1200" style="fill:#10223b;"/>
        <path id="Path11" serif:id="Path" d="M1800,600c0,331.371 -268.629,600 -600,600l0,-600" style="fill:#3266d3;"/>
        <path id="Path12" serif:id="Path" d="M1800,600c0,-331.371 -268.629,-600 -600,-600l0,600" style="fill:#fff;"/>
    </g>
    <g id="Group-23">
        <path id="Rectangle6" serif:id="Rectangle" d="M2987.25,3022.5l612.75,-622.5l0,1200l-1200,0l587.25,-577.5Z" style="fill:#3266d3;"/>
        <path id="Path13" serif:id="Path" d="M2400,3600c662.742,0 1200,-537.258 1200,-1200l-1200,0" style="fill:#fff;"/>
        <path id="Path14" serif:id="Path" d="M3000,2400c0,331.371 -268.629,600 -600,600l0,-600" style="fill:#f86f42;"/>
    </g>
    <g id="Group-22">
        <path id="Rectangle7" serif:id="Rectangle" d="M2400,1200l1200,1200l0,-1200l-1200,0Z" style="fill:#f86f42;"/>
        <path id="Path15" serif:id="Path" d="M2400,1200c662.742,0 1200,537.258 1200,1200l-600,0c0,-331.371 -268.629,-600 -600,-600l0,-600Z" style="fill:#10223b;"/>
        <path id="Path16" serif:id="Path" d="M3000,2400c0,-331.371 -268.629,-600 -600,-600l0,600" style="fill:#fdd9d9;"/>
    </g>
    <g id="Group-21">
        <rect id="Rectangle8" serif:id="Rectangle" x="2400" y="0" width="1200" height="1200" style="fill:#fff;"/>
        <path id="Path17" serif:id="Path" d="M2399.03,1200l0.971,0.001c662.742,0 1200,-537.258 1200,-1200l-1200,0l-506.116,277.608l-93.884,322.392c0,331.039 268.092,599.463 599.029,599.999Z" style="fill:#fdd9d9;"/>
        <path id="Path18" serif:id="Path" d="M2400,600l-600,0c0,-331.371 268.629,-600 600,-600l600,0c0,331.039 -268.092,599.463 -599.029,599.999l-0.971,0.001Z" style="fill:#f86f42;"/>
    </g>
    <g id="Group-18">
        <path id="Rectangle9" serif:id="Rectangle" d="M4800,3600l0,-1200l-1200,0l-0,1200l1200,0Z" style="fill:#fdd9d9;"/>
        <path id="Path19" serif:id="Path" d="M4800,3600c0,-331.371 -268.629,-600 -600,-600c-331.371,0 -600,268.629 -600,600" style="fill:#10223b;"/>
        <path id="Path20" serif:id="Path" d="M4800,2400c0,331.371 -268.629,600 -600,600c-331.371,0 -600,-268.629 -600,-600" style="fill:#fff;"/>
        <path id="Path21" serif:id="Path" d="M3899.25,2400c0,165.685 134.315,300 300,300c165.685,0 300,-134.315 300,-300" style="fill:#10223b;"/>
        <path id="Path22" serif:id="Path" d="M4199.25,3000c331.371,0 600,268.629 600,600l-600,0" style="fill:#f86f42;"/>
    </g>
    <g id="Group-17">
        <path id="Rectangle10" serif:id="Rectangle" d="M4800,2400l0,-1200l-1200,-0l-0,1200l1200,0Z" style="fill:#fff;"/>
        <path id="Path23" serif:id="Path" d="M4800,2400c0,-331.371 -268.629,-600 -600,-600c-331.371,-0 -600,268.629 -600,600" style="fill:#f86f42;"/>
        <path id="Path24" serif:id="Path" d="M4800,1200c0,331.371 -268.629,600 -600,600c-331.371,-0 -600,-268.629 -600,-600" style="fill:#fdd9d9;"/>
        <path id="Path25" serif:id="Path" d="M4200,1800c-331.371,-0 -600,-268.629 -600,-600l600,-0" style="fill:#3266d3;"/>
        <path id="Path26" serif:id="Path" d="M3899.25,2400c-0,-165.685 134.315,-300 300,-300c165.685,0 300,134.315 300,300" style="fill:#10223b;"/>
    </g>
    <g id="Group-16">
        <rect id="Rectangle11" serif:id="Rectangle" x="3600" y="0" width="1200" height="1200" style="fill:#10223b;"/>
        <path id="Path27" serif:id="Path" d="M4800,0c-662.742,0 -1200,537.258 -1200,1200l1200,0" style="fill:#3266d3;"/>
        <path id="Path28" serif:id="Path" d="M4200,1200c0,-331.371 268.629,-600 600,-600l0,600" style="fill:#fdd9d9;"/>
    </g>
    <g id="Group-13">
        <rect id="Rectangle12" serif:id="Rectangle" x="4800" y="2400" width="1200" height="1200" style="fill:#fff;"/>
        <path id="Path29" serif:id="Path" d="M6000,3600c-662.742,0 -1200,-537.258 -1200,-1200l1200,0" style="fill:#fdd9d9;"/>
        <path id="Path30" serif:id="Path" d="M5400,2400c0,331.371 268.629,600 600,600l0,-600" style="fill:#10223b;"/>
    </g>
    <g id="Group-12">
        <rect id="Rectangle13" serif:id="Rectangle" x="4800" y="1200" width="1200" height="1200" style="fill:#3266d3;"/>
        <path id="Path31" serif:id="Path" d="M6000,1200c-662.742,0 -1200,537.258 -1200,1200l1200,0" style="fill:#10223b;"/>
        <path id="Path32" serif:id="Path" d="M5400,2400c0,-331.371 268.629,-600 600,-600l0,600" style="fill:#fff;"/>
    </g>
    <g id="Group-11">
        <rect id="Rectangle14" serif:id="Rectangle" x="4800" y="0" width="1200" height="1200" style="fill:#f86f42;"/>
        <path id="Path33" serif:id="Path" d="M5400,0c-331.371,0 -600,268.629 -600,600c0,331.371 268.629,600 600,600" style="fill:#fff;"/>
        <path id="Path34" serif:id="Path" d="M5400,0c331.371,0 600,268.629 600,600c0,331.371 -268.629,600 -600,600" style="fill:#3266d3;"/>
    </g>
    <g id="Group-8">
        <rect id="Rectangle15" serif:id="Rectangle" x="6000" y="2400" width="1200" height="1200" style="fill:#fdd9d9;"/>
        <path id="Path35" serif:id="Path" d="M7200,2400c-331.371,0 -600,268.629 -600,600c0,331.371 268.629,600 600,600" style="fill:#3266d3;"/>
        <path id="Path36" serif:id="Path" d="M6000,2400c331.371,0 600,268.629 600,600c0,331.371 -268.629,600 -600,600" style="fill:#f86f42;"/>
    </g>
    <g id="Group-7">
        <rect id="Rectangle16" serif:id="Rectangle" x="6000" y="1200" width="1200" height="1200" style="fill:#3266d3;"/>
        <path id="Path37" serif:id="Path" d="M7200,2400c-662.742,0 -1200,-537.258 -1200,-1200l1200,0" style="fill:#fff;"/>
        <path id="Path38" serif:id="Path" d="M6600,1200c0,331.371 268.629,600 600,600l0,-600" style="fill:#fdd9d9;"/>
    </g>
    <g id="Group-6">
        <rect id="Rectangle17" serif:id="Rectangle" x="6000" y="0" width="1200" height="1200" style="fill:#fff;"/>
        <path id="Path39" serif:id="Path" d="M7200,0c-662.742,0 -1200,537.258 -1200,1200l1200,0" style="fill:#fdd9d9;"/>
        <path id="Path40" serif:id="Path" d="M6600,1200c0,-331.371 268.629,-600 600,-600l0,600" style="fill:#10223b;"/>
    </g>
    <g id="Group-3">
        <rect id="Rectangle18" serif:id="Rectangle" x="7200" y="2400" width="1200" height="1200" style="fill:#f86f42;"/>
        <path id="Path41" serif:id="Path" d="M8400,2400c-662.742,0 -1200,537.258 -1200,1200l1200,0" style="fill:#fff;"/>
        <path id="Path42" serif:id="Path" d="M7800,3600c0,-331.371 268.629,-600 600,-600l0,600" style="fill:#10223b;"/>
    </g>
    <g id="Group-2">
        <rect id="Rectangle19" serif:id="Rectangle" x="7200" y="1200" width="1200" height="1200" style="fill:#3266d3;"/>
        <path id="Path43" serif:id="Path" d="M7800,1200c-331.371,0 -600,268.629 -600,600c0,331.371 268.629,600 600,600" style="fill:#f86f42;"/>
        <path id="Path44" serif:id="Path" d="M7799.03,2400c-330.937,-0.536 -599.029,-268.96 -599.029,-599.999l600,-0l0,-600c331.371,-0 600,268.629 600,600c0,331.371 -268.629,600 -600,600l-0.971,-0.001Z" style="fill:#10223b;"/>
    </g>
    <g id="Group-1">
        <rect id="Rectangle20" serif:id="Rectangle" x="7200" y="0" width="1200" height="1200" style="fill:#fdd9d9;"/>
        <path id="Path45" serif:id="Path" d="M7200,0c662.742,0 1200,537.258 1200,1200l-1200,0" style="fill:#3266d3;"/>
        <path id="Path46" serif:id="Path" d="M7800,1200c0,-331.371 -268.629,-600 -600,-600l0,600" style="fill:#fff;"/>
    </g>
</svg>
