<?xml version="1.0" encoding="UTF-8" standalone="no"?>
<!DOCTYPE svg PUBLIC "-//W3C//DTD SVG 1.1//EN" "http://www.w3.org/Graphics/SVG/1.1/DTD/svg11.dtd">
<svg width="100%" height="100%" viewBox="0 0 24 24" version="1.1" xmlns="http://www.w3.org/2000/svg" xmlns:xlink="http://www.w3.org/1999/xlink" xml:space="preserve" xmlns:serif="http://www.serif.com/" style="fill-rule:evenodd;clip-rule:evenodd;stroke-linejoin:round;stroke-miterlimit:2;">
    <path d="M6.411,18.085l0,-0.17c0,-3.081 2.507,-5.588 5.589,-5.588c3.082,-0 5.589,2.507 5.589,5.588l-0,0.17l-1.454,-0l0,-0.17c0,-2.28 -1.855,-4.135 -4.135,-4.135c-2.28,0 -4.135,1.855 -4.135,4.135l-0,0.17l-1.454,-0Zm-3.205,-0l-0,-0.17c-0,-4.849 3.945,-8.794 8.794,-8.794c4.849,0 8.794,3.945 8.794,8.794l0,0.17l-1.453,-0l-0,-0.17c-0,-4.047 -3.293,-7.341 -7.341,-7.341c-4.048,0 -7.341,3.294 -7.341,7.341l0,0.17l-1.453,-0Zm19.341,-0l-0,-0.17c-0,-5.815 -4.732,-10.546 -10.547,-10.546c-5.815,-0 -10.547,4.731 -10.547,10.546l0,0.17l-1.453,-0l0,-0.17c0,-3.205 1.248,-6.218 3.515,-8.485c2.266,-2.266 5.28,-3.515 8.485,-3.515c3.205,0 6.219,1.249 8.485,3.515c2.267,2.267 3.515,5.28 3.515,8.485l0,0.17l-1.453,-0Z" style="fill-rule:nonzero;"/>
</svg>
